<svg xmlns="http://www.w3.org/2000/svg" xmlns:xlink="http://www.w3.org/1999/xlink" id="Layer_1" x="0" y="0" version="1.1" viewBox="0 0 512 512" xml:space="preserve" style="enable-background:new 0 0 512 512"><circle style="fill:#006cc4" cx="256" cy="256" r="245.551"/><circle style="fill:#fff" cx="256" cy="256" r="189.127"/><circle style="fill:#e31e10" cx="256" cy="256" r="33.203"/><path d="M291.238,509.49c-5.113,0-9.581-3.755-10.33-8.964c-0.821-5.711,3.144-11.008,8.857-11.829	C404.546,472.196,491.102,372.158,491.102,256c0-129.635-105.467-235.102-235.102-235.102S20.898,126.365,20.898,256	c0,116.025,86.443,216.047,201.075,232.659c5.711,0.828,9.669,6.128,8.842,11.84c-0.828,5.711-6.131,9.674-11.84,8.842	c-60.291-8.737-115.668-38.958-155.929-85.094C22.39,377.656,0,317.906,0,256c0-68.38,26.628-132.668,74.981-181.019S187.62,0,256,0	s132.668,26.628,181.019,74.981S512,187.62,512,256c0,61.956-22.422,121.744-63.137,168.35	c-40.322,46.156-95.768,76.355-156.124,85.032C292.234,509.455,291.733,509.49,291.238,509.49z"/><path d="M256.135,512c-0.007,0-0.014,0-0.021,0h-0.267c-5.771-0.011-10.441-4.698-10.429-10.469	c0.012-5.771,4.687-10.45,10.469-10.429h0.267c5.771,0.011,10.441,4.698,10.429,10.469C266.572,507.335,261.896,512,256.135,512z"/><path d="M256,455.483c-51.107,0-102.214-19.454-141.121-58.361c-77.815-77.815-77.815-204.428,0-282.243	c33.682-33.682,78.356-54.234,125.79-57.867c46.916-3.592,93.682,9.476,131.681,36.802c4.685,3.37,5.752,9.898,2.382,14.584	c-3.37,4.685-9.899,5.751-14.584,2.382c-71.327-51.293-168.263-43.355-230.493,18.876c-69.666,69.666-69.666,183.021,0,252.688	c69.666,69.668,183.021,69.668,252.688,0c60.904-60.903,69.758-156.537,21.054-227.396c-3.268-4.756-2.064-11.261,2.693-14.53	c4.756-3.268,11.261-2.064,14.53,2.693c54.409,79.158,44.525,185.986-23.499,254.01C358.214,436.029,307.107,455.483,256,455.483z"/><path d="M389.713,132.709c-2.667,0-5.332-1.017-7.37-3.053l-0.026-0.026c-4.08-4.08-4.08-10.697,0-14.778	c4.08-4.08,10.697-4.08,14.778,0c4.08,4.08,4.093,10.71,0.013,14.791C395.064,131.686,392.388,132.709,389.713,132.709z"/><path d="M232.811,290.927c-2.713,0-5.422-1.049-7.469-3.141l-0.179-0.182c-4.014-4.146-3.907-10.761,0.239-14.775	c4.143-4.011,10.75-3.908,14.765,0.229c0.016,0.016,0.109,0.11,0.111,0.113c4.036,4.124,3.964,10.741-0.161,14.776	C238.084,289.935,235.447,290.927,232.811,290.927z"/><path d="M321.893,245.551h-23.507c-3.943-15.708-16.376-28.076-32.116-31.936v-68.389c0-5.771-4.678-10.449-10.449-10.449	s-10.449,4.678-10.449,10.449v68.409c-16.92,4.206-30.345,18.353-32.967,36.161c-0.841,5.709,3.105,11.018,8.815,11.86	c5.703,0.839,11.018-3.105,11.86-8.815c1.646-11.172,11.422-19.596,22.742-19.596c12.675,0,22.987,10.311,22.988,22.986	c0,11.27-8.049,20.803-19.136,22.666c-5.692,0.957-9.529,6.346-8.572,12.037c0.859,5.105,5.282,8.719,10.292,8.719	c0.576,0,1.159-0.047,1.745-0.146c17.731-2.981,31.387-16.214,35.375-33.059h23.381c5.771,0,10.449-4.678,10.449-10.449	S327.663,245.551,321.893,245.551z"/><path d="M412.735,266.449h-13.596c-5.771,0-10.449-4.678-10.449-10.449c0-5.771,4.678-10.449,10.449-10.449h13.596	c5.771,0,10.449,4.678,10.449,10.449C423.184,261.771,418.506,266.449,412.735,266.449z"/><path d="M112.503,266.091H98.907c-5.771,0-10.449-4.678-10.449-10.449c0-5.771,4.678-10.449,10.449-10.449h13.596	c5.771,0,10.449,4.678,10.449,10.449C122.952,261.413,118.274,266.091,112.503,266.091z"/><path d="M256,122.952c-5.771,0-10.449-4.678-10.449-10.449V98.907c0-5.771,4.678-10.449,10.449-10.449	c5.771,0,10.449,4.678,10.449,10.449v13.596C266.449,118.274,261.771,122.952,256,122.952z"/><path d="M255.642,423.184c-5.771,0-10.449-4.678-10.449-10.449v-13.596c0-5.771,4.678-10.449,10.449-10.449	c5.771,0,10.449,4.678,10.449,10.449v13.596C266.091,418.506,261.413,423.184,255.642,423.184z"/></svg>